<?xml version="1.0" standalone="no"?>
<svg xmlns="http://www.w3.org/2000/svg" viewBox="0 0 236.9 29" width="236.9" height="29"><path fill="#b33ead" fill-rule="nonzero" d="M4.18 22.43L4.18 22.43Q2.14 22.43 1.07 20.75Q0 19.08 0 15.64L0 15.64L0 12.60Q0 11.06 0.22 9.97Q0.45 8.87 0.81 8.13Q1.18 7.38 1.66 6.95Q2.13 6.52 2.64 6.29Q3.14 6.06 3.63 5.99Q4.13 5.93 4.54 5.93L4.54 5.93Q5.36 5.93 6.04 6.15Q6.71 6.36 7.21 6.80Q7.70 7.24 7.97 7.91Q8.24 8.58 8.24 9.48L8.24 9.48Q8.24 10.04 8.19 10.45Q8.13 10.85 8.04 11.23L8.04 11.23L5.67 11.23L5.67 10.69Q5.67 9.47 5.38 8.78Q5.10 8.10 4.44 8.10L4.44 8.10Q4.08 8.10 3.81 8.27Q3.54 8.44 3.36 8.85Q3.18 9.26 3.09 9.95Q3 10.64 3 11.68L3 11.68L3 16.27Q3 17.32 3.07 18.06Q3.14 18.80 3.32 19.26Q3.49 19.72 3.79 19.93Q4.08 20.14 4.51 20.14L4.51 20.14Q4.73 20.14 4.95 20.03Q5.16 19.92 5.31 19.66Q5.47 19.41 5.57 18.98Q5.67 18.55 5.67 17.92L5.67 17.92L5.67 17.41L8.23 17.41L8.23 18.04Q8.23 20.33 7.21 21.38Q6.20 22.43 4.18 22.43ZM14.70 22.43L14.70 22.43Q14.18 22.43 13.65 22.35Q13.11 22.27 12.62 22.01Q12.12 21.75 11.68 21.27Q11.24 20.79 10.91 20.00Q10.58 19.22 10.39 18.07Q10.21 16.92 10.21 15.33L10.21 15.33L10.21 12.80Q10.21 11.23 10.40 10.11Q10.59 8.99 10.93 8.23Q11.26 7.46 11.71 7.01Q12.15 6.56 12.65 6.32Q13.15 6.08 13.68 6.01Q14.20 5.93 14.71 5.93L14.71 5.93Q15.19 5.93 15.70 6Q16.22 6.07 16.71 6.30Q17.20 6.53 17.64 6.98Q18.08 7.43 18.42 8.19Q18.75 8.95 18.94 10.08Q19.14 11.21 19.14 12.80L19.14 12.80L19.14 15.33Q19.14 16.90 18.94 18.04Q18.74 19.17 18.40 19.96Q18.06 20.74 17.61 21.23Q17.17 21.71 16.68 21.98Q16.18 22.25 15.67 22.34Q15.16 22.43 14.70 22.43ZM14.72 20.14L14.72 20.14Q15.12 20.14 15.39 19.94Q15.67 19.73 15.84 19.27Q16.01 18.80 16.08 18.03Q16.16 17.26 16.16 16.13L16.16 16.13L16.16 12.15Q16.16 11.02 16.08 10.24Q16.01 9.47 15.84 8.99Q15.67 8.52 15.39 8.31Q15.12 8.10 14.72 8.10L14.72 8.10Q14.30 8.10 14.01 8.31Q13.72 8.52 13.54 8.99Q13.35 9.47 13.27 10.24Q13.18 11.02 13.18 12.15L13.18 12.15L13.18 16.13Q13.18 17.26 13.27 18.03Q13.35 18.80 13.54 19.27Q13.72 19.73 14.01 19.94Q14.30 20.14 14.72 20.14ZM21.76 22.25L21.76 6.12L24.05 6.12L24.32 7.84L24.32 7.85Q24.67 7.30 25.07 6.93Q25.48 6.56 25.91 6.34Q26.34 6.12 26.79 6.02Q27.25 5.93 27.69 5.93L27.69 5.93Q29.11 5.93 29.88 6.92Q30.64 7.91 30.64 9.89L30.64 9.89L30.64 22.25L27.68 22.25L27.68 10.00Q27.68 8.93 27.35 8.51Q27.02 8.10 26.39 8.10L26.39 8.10Q25.95 8.10 25.51 8.39Q25.07 8.68 24.73 9.20L24.73 9.20L24.73 22.25L21.76 22.25ZM33.08 18.88L33.08 18.88Q33.08 18.35 33.18 17.86Q33.28 17.37 33.38 17.07L33.38 17.07L35.46 17.07Q35.46 17.95 35.55 18.54Q35.64 19.14 35.84 19.49Q36.04 19.84 36.37 19.99Q36.70 20.14 37.18 20.14L37.18 20.14Q37.85 20.14 38.16 19.77Q38.46 19.39 38.46 18.90L38.46 18.90Q38.46 18.64 38.39 18.41Q38.32 18.18 38.19 17.94Q38.06 17.70 37.88 17.45Q37.69 17.20 37.45 16.91L37.45 16.91L35.29 14.36Q34.86 13.83 34.47 13.28Q34.08 12.74 33.78 12.16Q33.48 11.58 33.30 10.95Q33.12 10.31 33.12 9.61L33.12 9.61Q33.12 8.67 33.44 7.98Q33.76 7.29 34.31 6.83Q34.85 6.38 35.57 6.15Q36.28 5.93 37.08 5.93L37.08 5.93Q37.96 5.93 38.66 6.14Q39.36 6.35 39.87 6.77Q40.37 7.20 40.64 7.82Q40.91 8.45 40.91 9.28L40.91 9.28Q40.91 9.84 40.81 10.37Q40.71 10.90 40.62 11.27L40.62 11.27L38.57 11.27Q38.55 10.48 38.50 9.88Q38.44 9.28 38.28 8.89Q38.12 8.50 37.85 8.30Q37.57 8.10 37.13 8.10L37.13 8.10Q36.74 8.10 36.48 8.22Q36.22 8.34 36.06 8.54Q35.91 8.74 35.84 8.99Q35.78 9.23 35.78 9.49L35.78 9.49Q35.78 10.05 36.05 10.54Q36.32 11.02 36.76 11.58L36.76 11.58L39.13 14.36Q39.39 14.67 39.73 15.12Q40.07 15.57 40.37 16.12Q40.68 16.66 40.89 17.31Q41.10 17.95 41.10 18.66L41.10 18.66Q41.10 19.51 40.83 20.21Q40.56 20.91 40.03 21.40Q39.50 21.89 38.74 22.16Q37.97 22.43 36.98 22.43L36.98 22.43Q36.18 22.43 35.46 22.25Q34.75 22.07 34.22 21.65Q33.69 21.23 33.39 20.55Q33.08 19.88 33.08 18.88ZM47.32 22.43L47.32 22.43Q46.28 22.43 45.47 22.04Q44.67 21.66 44.12 20.84Q43.57 20.02 43.29 18.73Q43.01 17.45 43.01 15.64L43.01 15.64L43.01 12.60Q43.01 11.06 43.24 9.97Q43.46 8.87 43.83 8.13Q44.20 7.38 44.69 6.95Q45.18 6.52 45.69 6.29Q46.21 6.06 46.72 5.99Q47.23 5.93 47.66 5.93L47.66 5.93Q48.46 5.93 49.20 6.17Q49.93 6.41 50.50 6.99Q51.06 7.57 51.39 8.54Q51.73 9.52 51.73 10.97L51.73 10.97Q51.73 11.46 51.70 11.96Q51.67 12.47 51.62 12.96Q51.57 13.44 51.50 13.90Q51.42 14.36 51.34 14.74L51.34 14.74L45.98 14.74L45.98 16.38Q45.98 17.44 46.07 18.16Q46.15 18.88 46.34 19.32Q46.54 19.76 46.87 19.95Q47.20 20.14 47.71 20.14L47.71 20.14Q47.98 20.14 48.23 20.03Q48.49 19.92 48.69 19.66Q48.88 19.41 49.00 18.98Q49.11 18.55 49.11 17.92L49.11 17.92L49.11 17.41L51.59 17.41L51.59 18.04Q51.59 20.33 50.49 21.38Q49.39 22.43 47.32 22.43ZM45.98 12.75L48.96 12.75Q48.97 12.62 48.98 12.40Q49.00 12.19 49.00 11.95Q49.01 11.72 49.01 11.49Q49.01 11.26 49.01 11.10L49.01 11.10Q49.01 9.50 48.63 8.80Q48.26 8.10 47.52 8.10L47.52 8.10Q47.13 8.10 46.84 8.28Q46.55 8.46 46.36 8.89Q46.17 9.32 46.08 10.02Q45.98 10.72 45.98 11.77L45.98 11.77L45.98 12.75ZM54.23 22.25L54.23 6.12L56.52 6.12L56.79 7.84L56.79 7.85Q57.14 7.30 57.54 6.93Q57.95 6.56 58.38 6.34Q58.82 6.12 59.27 6.02Q59.72 5.93 60.16 5.93L60.16 5.93Q61.58 5.93 62.35 6.92Q63.12 7.91 63.12 9.89L63.12 9.89L63.12 22.25L60.15 22.25L60.15 10.00Q60.15 8.93 59.82 8.51Q59.50 8.10 58.86 8.10L58.86 8.10Q58.42 8.10 57.98 8.39Q57.54 8.68 57.20 9.20L57.20 9.20L57.20 22.25L54.23 22.25ZM66.53 18.23L66.53 8.23L65.27 8.23L65.27 6.12L66.79 6.12L67.38 1.93L69.49 1.93L69.49 6.12L72.07 6.12L72.07 8.23L69.49 8.23L69.49 18.49Q69.49 19.02 69.59 19.34Q69.69 19.66 69.87 19.85Q70.04 20.03 70.28 20.09Q70.51 20.14 70.77 20.14L70.77 20.14Q71.20 20.14 71.54 20.04Q71.87 19.93 72.18 19.75L72.18 19.75L72.18 21.39Q71.92 21.70 71.62 21.90Q71.32 22.10 71.00 22.22Q70.69 22.35 70.36 22.39Q70.03 22.44 69.71 22.44L69.71 22.44Q69.09 22.44 68.52 22.28Q67.95 22.11 67.50 21.65Q67.05 21.19 66.79 20.37Q66.53 19.55 66.53 18.23L66.53 18.23ZM75.68 3.81L75.68 3.81Q74.86 3.81 74.38 3.32Q73.91 2.82 73.91 1.88L73.91 1.88Q73.91 1.35 74.03 0.99Q74.16 0.63 74.38 0.42Q74.61 0.20 74.94 0.10Q75.27 0 75.69 0L75.69 0Q76.57 0 77.03 0.45Q77.48 0.89 77.48 1.88L77.48 1.88Q77.48 2.79 77.02 3.30Q76.56 3.81 75.68 3.81ZM74.14 22.25L74.14 6.12L77.11 6.12L77.11 22.25L74.14 22.25ZM83.30 22.44L83.30 22.44Q83.03 22.44 82.66 22.39Q82.30 22.34 81.91 22.15Q81.53 21.96 81.15 21.59Q80.78 21.21 80.48 20.56Q80.19 19.91 80.01 18.95Q79.83 17.99 79.83 16.62L79.83 16.62L79.83 11.50Q79.83 10.14 80.02 9.20Q80.21 8.26 80.53 7.65Q80.85 7.03 81.24 6.69Q81.63 6.34 82.03 6.18Q82.42 6.01 82.78 5.98Q83.13 5.94 83.37 5.94L83.37 5.94Q83.80 5.94 84.19 6.06Q84.57 6.18 84.89 6.37Q85.21 6.56 85.45 6.80Q85.70 7.04 85.86 7.29L85.86 7.29L85.88 7.28L85.78 5.24L85.78 0.94L88.73 0.94L88.73 22.25L86.43 22.25L86.17 20.75Q85.97 21.07 85.71 21.38Q85.45 21.68 85.10 21.92Q84.75 22.16 84.30 22.30Q83.86 22.44 83.30 22.44ZM84.30 20.14L84.30 20.14Q84.60 20.14 84.83 20.04Q85.05 19.95 85.24 19.79Q85.42 19.63 85.55 19.42Q85.69 19.21 85.78 18.98L85.78 18.98L85.78 9.28Q85.56 8.79 85.19 8.44Q84.82 8.10 84.29 8.10L84.29 8.10Q83.96 8.10 83.70 8.21Q83.43 8.33 83.23 8.65Q83.03 8.98 82.92 9.54Q82.80 10.11 82.80 11.02L82.80 11.02L82.80 17.20Q82.80 18.11 82.92 18.68Q83.03 19.25 83.23 19.58Q83.43 19.90 83.70 20.02Q83.98 20.14 84.30 20.14ZM95.85 22.43L95.85 22.43Q95.33 22.43 94.80 22.35Q94.27 22.27 93.77 22.01Q93.27 21.75 92.83 21.27Q92.39 20.79 92.06 20.00Q91.73 19.22 91.55 18.07Q91.36 16.92 91.36 15.33L91.36 15.33L91.36 12.80Q91.36 11.23 91.55 10.11Q91.75 8.99 92.08 8.23Q92.41 7.46 92.86 7.01Q93.30 6.56 93.80 6.32Q94.30 6.08 94.83 6.01Q95.36 5.93 95.86 5.93L95.86 5.93Q96.34 5.93 96.86 6Q97.37 6.07 97.86 6.30Q98.36 6.53 98.79 6.98Q99.23 7.43 99.57 8.19Q99.90 8.95 100.10 10.08Q100.29 11.21 100.29 12.80L100.29 12.80L100.29 15.33Q100.29 16.90 100.09 18.04Q99.89 19.17 99.55 19.96Q99.21 20.74 98.77 21.23Q98.32 21.71 97.83 21.98Q97.34 22.25 96.83 22.34Q96.32 22.43 95.85 22.43ZM95.87 20.14L95.87 20.14Q96.27 20.14 96.54 19.94Q96.82 19.73 96.99 19.27Q97.16 18.80 97.24 18.03Q97.31 17.26 97.31 16.13L97.31 16.13L97.31 12.15Q97.31 11.02 97.24 10.24Q97.16 9.47 96.99 8.99Q96.82 8.52 96.54 8.31Q96.27 8.10 95.87 8.10L95.87 8.10Q95.45 8.10 95.16 8.31Q94.88 8.52 94.69 8.99Q94.50 9.47 94.42 10.24Q94.34 11.02 94.34 12.15L94.34 12.15L94.34 16.13Q94.34 17.26 94.42 18.03Q94.50 18.80 94.69 19.27Q94.88 19.73 95.16 19.94Q95.45 20.14 95.87 20.14ZM102.28 18.88L102.28 18.88Q102.28 18.35 102.38 17.86Q102.48 17.37 102.57 17.07L102.57 17.07L104.66 17.07Q104.66 17.95 104.75 18.54Q104.84 19.14 105.04 19.49Q105.23 19.84 105.57 19.99Q105.90 20.14 106.38 20.14L106.38 20.14Q107.05 20.14 107.36 19.77Q107.66 19.39 107.66 18.90L107.66 18.90Q107.66 18.64 107.59 18.41Q107.52 18.18 107.39 17.94Q107.26 17.70 107.07 17.45Q106.89 17.20 106.65 16.91L106.65 16.91L104.48 14.36Q104.06 13.83 103.67 13.28Q103.28 12.74 102.98 12.16Q102.68 11.58 102.50 10.95Q102.32 10.31 102.32 9.61L102.32 9.61Q102.32 8.67 102.64 7.98Q102.96 7.29 103.51 6.83Q104.05 6.38 104.77 6.15Q105.48 5.93 106.28 5.93L106.28 5.93Q107.16 5.93 107.86 6.14Q108.56 6.35 109.07 6.77Q109.57 7.20 109.84 7.82Q110.11 8.45 110.11 9.28L110.11 9.28Q110.11 9.84 110.01 10.37Q109.91 10.90 109.82 11.27L109.82 11.27L107.77 11.27Q107.75 10.48 107.70 9.88Q107.64 9.28 107.48 8.89Q107.32 8.50 107.04 8.30Q106.77 8.10 106.32 8.10L106.32 8.10Q105.94 8.10 105.68 8.22Q105.42 8.34 105.26 8.54Q105.11 8.74 105.04 8.99Q104.98 9.23 104.98 9.49L104.98 9.49Q104.98 10.05 105.25 10.54Q105.52 11.02 105.96 11.58L105.96 11.58L108.33 14.36Q108.59 14.67 108.93 15.12Q109.27 15.57 109.57 16.12Q109.88 16.66 110.09 17.31Q110.30 17.95 110.30 18.66L110.30 18.66Q110.30 19.51 110.03 20.21Q109.76 20.91 109.23 21.40Q108.70 21.89 107.94 22.16Q107.17 22.43 106.18 22.43L106.18 22.43Q105.38 22.43 104.66 22.25Q103.95 22.07 103.42 21.65Q102.89 21.23 102.59 20.55Q102.28 19.88 102.28 18.88ZM120.63 21.19L120.73 23.17L120.73 27.47L117.76 27.47L117.76 6.12L120.08 6.12L120.35 7.82Q120.55 7.49 120.83 7.15Q121.10 6.81 121.47 6.54Q121.84 6.28 122.30 6.11Q122.77 5.94 123.34 5.94L123.34 5.94Q123.59 5.94 123.93 5.99Q124.28 6.04 124.65 6.22Q125.02 6.41 125.38 6.78Q125.75 7.15 126.04 7.79Q126.33 8.44 126.51 9.40Q126.69 10.36 126.69 11.73L126.69 11.73L126.69 16.62Q126.69 17.99 126.51 18.95Q126.33 19.91 126.04 20.55Q125.74 21.20 125.37 21.57Q124.99 21.95 124.61 22.14Q124.22 22.32 123.86 22.38Q123.49 22.43 123.22 22.43L123.22 22.43Q122.29 22.43 121.66 22.07Q121.03 21.70 120.63 21.19L120.63 21.19ZM120.73 9.21L120.73 18.96Q120.82 19.20 120.96 19.41Q121.09 19.62 121.27 19.78Q121.45 19.95 121.68 20.04Q121.91 20.14 122.21 20.14L122.21 20.14Q122.54 20.14 122.81 20.02Q123.08 19.90 123.28 19.58Q123.48 19.25 123.59 18.68Q123.70 18.11 123.70 17.20L123.70 17.20L123.70 11.03Q123.70 10.13 123.59 9.56Q123.48 8.99 123.29 8.66Q123.09 8.33 122.82 8.21Q122.55 8.10 122.23 8.10L122.23 8.10Q121.66 8.10 121.31 8.43Q120.95 8.77 120.73 9.21L120.73 9.21ZM133.25 22.43L133.25 22.43Q132.21 22.43 131.41 22.04Q130.61 21.66 130.05 20.84Q129.50 20.02 129.22 18.73Q128.94 17.45 128.94 15.64L128.94 15.64L128.94 12.60Q128.94 11.06 129.17 9.97Q129.40 8.87 129.77 8.13Q130.14 7.38 130.62 6.95Q131.11 6.52 131.63 6.29Q132.14 6.06 132.65 5.99Q133.16 5.93 133.59 5.93L133.59 5.93Q134.39 5.93 135.13 6.17Q135.87 6.41 136.43 6.99Q136.99 7.57 137.33 8.54Q137.66 9.52 137.66 10.97L137.66 10.97Q137.66 11.46 137.63 11.96Q137.60 12.47 137.55 12.96Q137.51 13.44 137.43 13.90Q137.36 14.36 137.27 14.74L137.27 14.74L131.92 14.74L131.92 16.38Q131.92 17.44 132 18.16Q132.08 18.88 132.28 19.32Q132.47 19.76 132.80 19.95Q133.14 20.14 133.64 20.14L133.64 20.14Q133.91 20.14 134.17 20.03Q134.43 19.92 134.62 19.66Q134.81 19.41 134.93 18.98Q135.05 18.55 135.05 17.92L135.05 17.92L135.05 17.41L137.52 17.41L137.52 18.04Q137.52 20.33 136.42 21.38Q135.33 22.43 133.25 22.43ZM131.92 12.75L134.89 12.75Q134.91 12.62 134.92 12.40Q134.93 12.19 134.94 11.95Q134.94 11.72 134.94 11.49Q134.94 11.26 134.94 11.10L134.94 11.10Q134.94 9.50 134.57 8.80Q134.19 8.10 133.45 8.10L133.45 8.10Q133.07 8.10 132.77 8.28Q132.48 8.46 132.29 8.89Q132.11 9.32 132.01 10.02Q131.92 10.72 131.92 11.77L131.92 11.77L131.92 12.75ZM140.51 18.23L140.51 8.23L139.25 8.23L139.25 6.12L140.77 6.12L141.36 1.93L143.47 1.93L143.47 6.12L146.05 6.12L146.05 8.23L143.47 8.23L143.47 18.49Q143.47 19.02 143.57 19.34Q143.67 19.66 143.85 19.85Q144.02 20.03 144.26 20.09Q144.49 20.14 144.75 20.14L144.75 20.14Q145.18 20.14 145.52 20.04Q145.85 19.93 146.16 19.75L146.16 19.75L146.16 21.39Q145.90 21.70 145.60 21.90Q145.30 22.10 144.98 22.22Q144.67 22.35 144.34 22.39Q144.01 22.44 143.70 22.44L143.70 22.44Q143.07 22.44 142.50 22.28Q141.93 22.11 141.48 21.65Q141.04 21.19 140.77 20.37Q140.51 19.55 140.51 18.23L140.51 18.23ZM147.45 18.88L147.45 18.88Q147.45 18.35 147.54 17.86Q147.64 17.37 147.74 17.07L147.74 17.07L149.82 17.07Q149.82 17.95 149.91 18.54Q150 19.14 150.20 19.49Q150.40 19.84 150.73 19.99Q151.07 20.14 151.55 20.14L151.55 20.14Q152.21 20.14 152.52 19.77Q152.82 19.39 152.82 18.90L152.82 18.90Q152.82 18.64 152.75 18.41Q152.68 18.18 152.55 17.94Q152.43 17.70 152.24 17.45Q152.05 17.20 151.82 16.91L151.82 16.91L149.65 14.36Q149.23 13.83 148.83 13.28Q148.44 12.74 148.14 12.16Q147.84 11.58 147.66 10.95Q147.48 10.31 147.48 9.61L147.48 9.61Q147.48 8.67 147.80 7.98Q148.13 7.29 148.67 6.83Q149.21 6.38 149.93 6.15Q150.64 5.93 151.44 5.93L151.44 5.93Q152.32 5.93 153.02 6.14Q153.73 6.35 154.23 6.77Q154.73 7.20 155.00 7.82Q155.27 8.45 155.27 9.28L155.27 9.28Q155.27 9.84 155.17 10.37Q155.07 10.90 154.98 11.27L154.98 11.27L152.93 11.27Q152.92 10.48 152.86 9.88Q152.80 9.28 152.64 8.89Q152.48 8.50 152.21 8.30Q151.93 8.10 151.49 8.10L151.49 8.10Q151.10 8.10 150.84 8.22Q150.59 8.34 150.43 8.54Q150.27 8.74 150.21 8.99Q150.14 9.23 150.14 9.49L150.14 9.49Q150.14 10.05 150.41 10.54Q150.68 11.02 151.13 11.58L151.13 11.58L153.49 14.36Q153.75 14.67 154.09 15.12Q154.43 15.57 154.73 16.12Q155.04 16.66 155.25 17.31Q155.46 17.95 155.46 18.66L155.46 18.66Q155.46 19.51 155.19 20.21Q154.92 20.91 154.39 21.40Q153.87 21.89 153.10 22.16Q152.33 22.43 151.35 22.43L151.35 22.43Q150.54 22.43 149.82 22.25Q149.11 22.07 148.58 21.65Q148.05 21.23 147.75 20.55Q147.45 19.88 147.45 18.88ZM157.79 22.25L157.79 0.94L160.76 0.94L160.76 4.73L160.61 7.50Q160.93 7.04 161.31 6.74Q161.70 6.45 162.10 6.26Q162.50 6.08 162.92 6.01Q163.34 5.93 163.75 5.93L163.75 5.93Q165.16 5.93 165.93 6.92Q166.70 7.91 166.70 9.89L166.70 9.89L166.70 22.25L163.73 22.25L163.73 10.00Q163.73 8.93 163.41 8.51Q163.08 8.10 162.45 8.10L162.45 8.10Q162 8.10 161.55 8.40Q161.10 8.70 160.76 9.22L160.76 9.22L160.76 22.25L157.79 22.25ZM173.84 22.43L173.84 22.43Q173.32 22.43 172.79 22.35Q172.25 22.27 171.76 22.01Q171.26 21.75 170.82 21.27Q170.38 20.79 170.05 20.00Q169.72 19.22 169.54 18.07Q169.35 16.92 169.35 15.33L169.35 15.33L169.35 12.80Q169.35 11.23 169.54 10.11Q169.73 8.99 170.07 8.23Q170.40 7.46 170.85 7.01Q171.29 6.56 171.79 6.32Q172.29 6.08 172.82 6.01Q173.34 5.93 173.85 5.93L173.85 5.93Q174.33 5.93 174.84 6Q175.36 6.07 175.85 6.30Q176.34 6.53 176.78 6.98Q177.22 7.43 177.56 8.19Q177.89 8.95 178.08 10.08Q178.28 11.21 178.28 12.80L178.28 12.80L178.28 15.33Q178.28 16.90 178.08 18.04Q177.88 19.17 177.54 19.96Q177.20 20.74 176.75 21.23Q176.31 21.71 175.82 21.98Q175.32 22.25 174.81 22.34Q174.30 22.43 173.84 22.43ZM173.86 20.14L173.86 20.14Q174.26 20.14 174.53 19.94Q174.81 19.73 174.98 19.27Q175.15 18.80 175.22 18.03Q175.30 17.26 175.30 16.13L175.30 16.13L175.30 12.15Q175.30 11.02 175.22 10.24Q175.15 9.47 174.98 8.99Q174.81 8.52 174.53 8.31Q174.26 8.10 173.86 8.10L173.86 8.10Q173.44 8.10 173.15 8.31Q172.86 8.52 172.68 8.99Q172.49 9.47 172.41 10.24Q172.32 11.02 172.32 12.15L172.32 12.15L172.32 16.13Q172.32 17.26 172.41 18.03Q172.49 18.80 172.68 19.27Q172.86 19.73 173.15 19.94Q173.44 20.14 173.86 20.14ZM183.77 21.19L183.87 23.17L183.87 27.47L180.90 27.47L180.90 6.12L183.22 6.12L183.49 7.82Q183.69 7.49 183.97 7.15Q184.24 6.81 184.61 6.54Q184.98 6.28 185.44 6.11Q185.91 5.94 186.48 5.94L186.48 5.94Q186.73 5.94 187.07 5.99Q187.42 6.04 187.79 6.22Q188.16 6.41 188.53 6.78Q188.89 7.15 189.18 7.79Q189.47 8.44 189.65 9.40Q189.83 10.36 189.83 11.73L189.83 11.73L189.83 16.62Q189.83 17.99 189.65 18.95Q189.47 19.91 189.18 20.55Q188.88 21.20 188.51 21.57Q188.13 21.95 187.75 22.14Q187.36 22.32 187.00 22.38Q186.63 22.43 186.36 22.43L186.36 22.43Q185.43 22.43 184.80 22.07Q184.17 21.70 183.77 21.19L183.77 21.19ZM183.87 9.21L183.87 18.96Q183.96 19.20 184.10 19.41Q184.23 19.62 184.41 19.78Q184.59 19.95 184.82 20.04Q185.05 20.14 185.36 20.14L185.36 20.14Q185.68 20.14 185.95 20.02Q186.22 19.90 186.42 19.58Q186.62 19.25 186.73 18.68Q186.84 18.11 186.84 17.20L186.84 17.20L186.84 11.03Q186.84 10.13 186.73 9.56Q186.62 8.99 186.43 8.66Q186.23 8.33 185.96 8.21Q185.70 8.10 185.37 8.10L185.37 8.10Q184.80 8.10 184.45 8.43Q184.09 8.77 183.87 9.21L183.87 9.21Z" transform="translate(0, 0.766)"></path><line x1="198.83203125" y1="2%" x2="198.83203125" y2="98%" stroke="#b33ead" stroke-linecap="round"></line><g fill="#b33ead" color="#b33ead" transform="translate(207.83203125 0) scale(0.29)"><svg width="100.0" height="100.0" x="0.0" y="0.0" viewBox="0 0 100 100"><path d="M84.854,66.98c-0.589-2.165-1.62-2.902-2.815-3.757c-0.6-0.429-0.914-1.043-0.886-1.73c0.042-1.007,0.773-2.004,1.974-2.719  c1.066-0.581,1.567-1.814,1.166-2.868c-0.326-0.854-1.299-1.618-3.041-1.214c-1.577,0.37-2.977,1.766-3.841,3.828  c-0.774,1.847-1.138,4.395-0.205,5.927c0.59,0.969,0.905,1.407,2.816,2.556c0.262,0.157,0.608,0.445,0.593,1.127  c-0.023,1.031-0.849,2.237-1.569,2.626c-0.019,0.01-0.047,0.024-0.082,0.04c-1.125-6.125-8.212-14.443-13.081-16.509  c-0.046-0.055-0.089-0.113-0.129-0.178c-0.079-0.128-0.187-0.225-0.306-0.302c0.016-0.799,0.199-1.654,0.36-2.365  c0.05-0.219,0.096-0.422,0.132-0.604c0.316-1.582-0.05-2.555-0.714-4.321l-0.173-0.459c-0.021-0.073-0.051-0.215-0.092-0.403  c-0.512-2.352-1.145-4.662-2.744-4.824c-1.484-0.136-2.756,1.968-3.627,4.004c-1.292,0.093-3.736,0.504-4.213,2.281  c-0.282,1.052-1.214,1.81-1.77,2.264c-0.385,0.313-0.64,0.521-0.748,0.904c-0.261,0.943-0.08,2.698,0.672,4.002  c0.487,0.843,1.161,1.396,1.949,1.602c0.484,0.126,1.078,0.976,1.443,2.065c0.054,0.161,0.152,0.29,0.267,0.399  c0.002,0.009-0.001,0.017,0,0.026c0.748,3.524,0.509,11.869,0.43,14.611c-0.019,0.645-0.027,1.054-0.022,1.13  c0.007,0.122-0.03,0.258-0.078,0.43c-0.106,0.387-0.284,1.032,0.142,1.736c1.021,1.681,3.087,1.304,3.746,1.187  c0.229-0.03,1.193,0.122,2.035,0.249c1.847,0.278,4.573,0.688,7.385,0.688c2.268,0,4.591-0.268,6.551-1.087  c0.045-0.02,0.089-0.041,0.13-0.066c0.456-0.274,0.864-0.609,1.217-0.999c0.507-0.042,0.913-0.132,1.031-0.161  C83.281,74.661,85.707,70.102,84.854,66.98z M54.984,53.951c-0.326-0.085-0.571-0.409-0.72-0.666  c-0.437-0.756-0.552-1.76-0.51-2.262c0.035-0.028,0.074-0.06,0.116-0.094c0.695-0.566,1.989-1.621,2.438-3.297  c0.11-0.412,1.578-0.821,2.963-0.824c0.41-0.001,0.778-0.252,0.929-0.633c0.544-1.375,1.339-2.783,1.809-3.241  c0.217,0.317,0.559,1.124,0.998,3.145c0.071,0.331,0.13,0.563,0.16,0.645l0.187,0.497c0.604,1.604,0.829,2.204,0.625,3.224  c-0.033,0.167-0.076,0.354-0.122,0.557c-0.173,0.767-0.399,1.768-0.42,2.78c-1.965,1.175-4.197,2.041-5.983,2.623  C57.005,55.452,56.215,54.271,54.984,53.951z M78.237,74.166c-0.005,0.001-0.499,0.108-1.008,0.113  c-0.31,0.003-0.601,0.149-0.788,0.396c-0.252,0.334-0.549,0.606-0.903,0.829c-3.874,1.58-9.673,0.706-12.796,0.237  c-1.156-0.175-1.833-0.272-2.292-0.272c-0.145,0-0.268,0.01-0.377,0.029c-1.391,0.255-1.616-0.114-1.682-0.174  c0.002-0.04,0.034-0.16,0.059-0.247c0.071-0.262,0.17-0.619,0.147-1.056c-0.003-0.106,0.009-0.452,0.023-0.977  c0.083-2.87,0.292-10.147-0.312-14.19c2.021-0.715,4.729-2.092,6.357-2.957c0.083,0.069,0.177,0.126,0.278,0.165  c4.451,1.746,11.61,10.33,12.143,15.726c0.03,0.309,0.202,0.586,0.465,0.75c0.716,0.449,1.584,0.442,2.442-0.023  c1.432-0.771,2.582-2.677,2.621-4.34c0.028-1.24-0.527-2.267-1.563-2.888c-1.564-0.94-1.686-1.14-2.14-1.886  c-0.401-0.658-0.383-2.376,0.343-4.108c0.605-1.443,1.522-2.436,2.453-2.654c0.476-0.11,0.694-0.034,0.716-0.021  c0.02,0.05-0.022,0.272-0.286,0.418c-1.824,1.084-2.912,2.678-2.982,4.372c-0.058,1.365,0.57,2.619,1.721,3.441  c1.062,0.759,1.646,1.178,2.049,2.655v0.001C83.443,69.4,81.805,73.031,78.237,74.166z M45.479,50.239  c0.642-0.3,1.089-0.927,1.089-1.659c0-0.629-0.329-1.183-0.829-1.518c0.097-0.46,0.315-1.029,0.702-1.168  c0.192-0.068,0.561-0.165,1.027-0.289c2.402-0.643,4.836-1.357,5.89-2.414c1.143-1.157,2.009-4.833,0.851-6.414  c-0.954-1.306-4.176-1.424-6.068-1.381c-0.519-1.034-1.386-2.566-2.178-3.052c-0.764-0.469-2.132-0.601-3.113-0.632  c-0.003-1.735-0.312-3.854-1.749-4.203c-0.317-0.076-0.809-0.098-1.365,0.244c-1.749,1.074-3.73,6.204-5.893,15.219  c-0.26,0.049-0.501,0.147-0.716,0.279c-0.155,0.066-0.285,0.173-0.389,0.312c-0.35,0.357-0.568,0.834-0.568,1.362  c0,0.261,0.056,0.509,0.151,0.738c-1.905,4.944-7.011,18.757-7.593,26.222c-1.614-1.92-2.45-4.487-3.042-6.302  c-0.559-1.716-0.867-2.661-1.846-2.725c-0.567-0.036-1.054,0.311-1.4,1.038c-1.322,2.766-0.147,8.915,2.245,11.75  c1.574,1.865,4.298,2.491,6.1,2.006c1.169,0.702,2.653,0.96,4.291,0.96c2.397,0,5.12-0.552,7.653-1.064  c2.174-0.44,4.426-0.894,5.386-0.686c1.551,0.337,2.71,0.15,3.444-0.558c0.834-0.803,0.732-1.899,0.695-2.152L45.479,50.239z   M40.588,29.609c0.197,0.568,0.305,1.862,0.231,3.044c-0.018,0.282,0.086,0.559,0.283,0.761s0.47,0.326,0.753,0.301  c1.146-0.043,2.646,0.081,3.057,0.334c0.315,0.216,1.112,1.522,1.706,2.795c0.172,0.368,0.552,0.597,0.957,0.577  c2.224-0.115,4.61,0.146,5.024,0.547c0.414,0.59-0.036,3.182-0.662,3.816c-0.758,0.76-3.614,1.523-4.986,1.89  c-0.54,0.145-0.967,0.261-1.187,0.34c-1.226,0.438-1.731,1.595-1.94,2.434c-2.348-0.57-5.612-1.789-7.918-2.704  c-0.048-0.062-0.098-0.122-0.153-0.178C38.032,34.048,39.791,30.414,40.588,29.609z M46.165,74.869  c-0.058,0.053-0.411,0.306-1.629,0.04c-1.371-0.296-3.505,0.133-6.207,0.681c-3.882,0.787-8.711,1.765-10.793,0.162  c-0.179-0.138-0.394-0.208-0.61-0.208c-0.143,0-0.286,0.03-0.421,0.093c-0.814,0.378-3.063,0.182-4.294-1.277  c-1.521-1.802-2.395-5.386-2.314-7.803c0.77,2.347,2.051,5.966,4.841,8.11l0.344,0.286c0.314,0.263,0.757,0.306,1.113,0.112  c0.359-0.193,0.565-0.585,0.521-0.99c-0.519-4.695,3.513-17.353,7.264-27.156c2.952,0.98,7.521,2.473,9.462,3.107l2.826,24.376  c0,0.006,0.005,0.035,0.006,0.04C46.272,74.445,46.305,74.74,46.165,74.869z"></path></svg></g></svg>